<?xml version="1.0" standalone="no"?>
<!DOCTYPE svg PUBLIC "-//W3C//DTD SVG 20010904//EN"
 "http://www.w3.org/TR/2001/REC-SVG-20010904/DTD/svg10.dtd">
<svg version="1.0" xmlns="http://www.w3.org/2000/svg"
 width="621.000000pt" height="611.000000pt" viewBox="0 0 621.000000 611.000000"
 preserveAspectRatio="xMidYMid meet">

<g transform="translate(0.000000,611.000000) scale(0.100000,-0.100000)"
fill="#000000" stroke="none">
<path d="M2560 5779 c-227 -49 -339 -156 -416 -398 -29 -91 -31 -158 -6 -177
24 -18 42 -17 90 6 48 24 138 26 196 6 38 -13 156 -93 156 -105 0 -11 -157
-408 -206 -523 -24 -55 -70 -175 -81 -209 -3 -10 25 -46 79 -101 46 -47 162
-167 258 -268 96 -101 209 -218 250 -260 41 -43 101 -105 133 -139 32 -33 63
-61 69 -61 6 0 45 36 87 79 42 44 159 166 261 271 102 106 208 216 235 245 28
29 81 84 118 122 l69 70 -81 159 c-45 88 -99 191 -121 229 -22 39 -40 73 -40
78 0 16 59 9 195 -25 22 -5 56 -14 75 -18 19 -5 64 -14 100 -20 36 -7 74 -14
85 -17 17 -5 17 -4 5 9 -97 99 -306 322 -308 329 -5 11 15 11 75 0 26 -5 69
-12 95 -15 l47 -5 -57 89 c-31 49 -79 124 -106 166 l-49 76 46 42 c25 22 79
72 121 109 42 38 76 72 76 77 0 4 -24 10 -52 13 -29 4 -87 11 -128 16 -41 6
-111 15 -155 20 -44 6 -114 15 -155 21 -205 30 -423 60 -580 80 -36 5 -99 13
-140 19 -123 18 -192 21 -240 10z m310 -49 c70 -10 105 -15 295 -40 39 -5 104
-14 145 -20 41 -6 109 -15 150 -20 41 -5 109 -14 150 -20 112 -16 219 -30 278
-37 61 -7 71 -16 41 -40 -12 -10 -39 -34 -60 -53 -21 -19 -61 -55 -88 -79 -52
-45 -54 -54 -19 -95 4 -6 31 -47 60 -91 28 -44 59 -92 69 -107 11 -15 19 -32
19 -37 0 -11 -8 -10 -125 10 -118 19 -119 16 -14 -95 52 -55 120 -126 152
-160 57 -60 70 -83 43 -73 -8 3 -32 9 -53 12 -21 3 -54 10 -73 15 -46 11 -112
26 -180 40 -30 6 -68 15 -85 20 -16 4 -47 11 -68 15 -37 6 -38 5 -32 -16 4
-12 33 -77 64 -143 32 -67 85 -179 119 -251 34 -71 59 -131 57 -133 -5 -5
-124 77 -215 149 -14 11 -37 28 -52 37 -16 9 -28 20 -28 24 0 4 -6 8 -14 8 -8
0 -16 4 -18 8 -1 5 -25 23 -53 42 -27 18 -52 36 -55 40 -3 3 -21 17 -40 30
-19 13 -37 27 -40 30 -3 3 -21 17 -40 30 -19 14 -42 30 -50 37 -44 35 -111 83
-116 83 -3 0 -11 6 -19 13 -30 28 -56 47 -65 47 -6 0 -10 4 -10 8 0 4 -12 15
-27 24 -16 9 -39 26 -53 37 -14 11 -56 43 -95 71 -38 28 -77 56 -85 63 -8 7
-31 23 -50 37 -19 13 -41 30 -47 36 -29 28 -87 57 -141 69 -61 15 -127 7 -189
-21 -39 -18 -63 -9 -63 22 0 34 64 221 94 274 51 92 138 163 242 199 51 18 77
20 184 17 69 -3 159 -9 200 -16z"/>
<path d="M2530 5681 c-8 -5 -35 -15 -59 -22 -51 -15 -158 -112 -186 -168 -17
-33 -65 -160 -65 -171 0 -3 48 -5 108 -5 100 0 111 -2 172 -32 36 -17 74 -40
85 -50 19 -18 98 -76 133 -98 9 -5 21 -14 28 -20 38 -32 55 -45 59 -45 3 0 13
-6 22 -14 10 -8 65 -50 123 -93 58 -43 112 -83 120 -90 8 -7 47 -35 85 -63 39
-28 77 -56 85 -63 9 -7 38 -28 65 -47 27 -19 56 -40 65 -46 8 -7 44 -34 80
-61 36 -26 74 -56 84 -65 30 -27 38 -22 22 15 -46 107 -158 341 -166 347 -16
11 -74 56 -99 77 l-26 23 42 0 c23 0 44 -4 47 -9 3 -4 22 -11 43 -14 21 -4 58
-11 83 -17 25 -6 63 -15 85 -20 42 -8 145 -34 204 -50 19 -5 37 -8 39 -5 4 4
-85 101 -172 187 -26 26 -54 48 -62 48 -8 0 -14 3 -14 8 0 4 -22 18 -48 31
-27 12 -59 32 -73 43 l-24 19 40 -5 c95 -11 191 -25 205 -30 8 -2 43 -7 78
-10 46 -3 61 -2 55 7 -4 7 -22 33 -40 59 -18 26 -33 52 -33 56 0 14 -52 55
-103 82 -26 14 -57 33 -70 42 -21 17 -19 18 68 18 l90 1 53 49 c30 27 51 53
48 58 -3 5 -34 12 -68 15 -35 4 -94 11 -133 17 -38 5 -106 15 -150 21 -95 12
-188 25 -287 39 -40 6 -107 15 -148 20 -41 5 -109 14 -150 20 -104 15 -322 22
-340 11z m248 -108 c45 -3 82 -9 82 -14 0 -9 -67 -56 -111 -78 -14 -7 -43 -11
-64 -9 -34 3 -43 8 -62 43 -13 22 -23 48 -23 59 0 16 5 18 48 12 26 -3 84 -9
130 -13z"/>
<path d="M1345 5228 c-2 -13 -21 -104 -40 -203 -20 -99 -38 -189 -41 -200 -5
-22 7 -38 82 -102 87 -75 97 -83 105 -83 4 0 14 -6 21 -12 8 -7 21 -17 29 -23
67 -43 715 -479 719 -484 3 -3 17 -12 33 -20 15 -8 27 -18 27 -23 0 -4 5 -8
11 -8 12 0 93 -54 123 -82 11 -10 25 -18 30 -18 6 -1 27 -14 46 -30 19 -17 39
-30 45 -30 5 -1 26 -14 45 -30 19 -17 40 -30 46 -30 7 0 14 -4 16 -8 2 -5 46
-37 98 -72 106 -71 104 -65 -22 65 -47 50 -122 127 -165 171 -118 123 -453
471 -519 540 -108 113 -461 477 -573 592 -98 100 -111 110 -116 90z"/>
<path d="M4739 5177 c-35 -35 -107 -109 -159 -164 -377 -394 -474 -495 -540
-563 -41 -43 -158 -164 -260 -270 -102 -106 -225 -234 -275 -285 -49 -51 -106
-110 -125 -131 l-35 -37 43 24 c23 12 51 31 62 41 10 10 23 18 28 18 5 0 17 9
27 20 10 11 22 20 26 20 5 0 32 18 61 40 29 22 58 40 65 40 6 0 13 4 15 8 2 5
134 96 293 202 160 106 292 197 293 202 2 4 9 8 15 8 7 0 36 18 65 40 29 22
57 40 62 40 6 0 10 5 10 10 0 6 5 10 10 10 6 0 20 9 32 20 12 11 28 20 35 20
7 0 13 5 13 10 0 6 5 10 11 10 10 0 99 57 109 70 3 4 39 30 80 58 41 28 89 62
105 77 101 89 95 65 60 255 -14 74 -30 149 -35 166 -6 17 -10 41 -10 55 -1 56
-15 54 -81 -14z"/>
<path d="M5815 4966 c-22 -7 -74 -23 -115 -36 -41 -12 -86 -26 -100 -30 -14
-4 -45 -13 -70 -20 -25 -6 -53 -16 -62 -21 -10 -5 -29 -9 -42 -9 -14 0 -28 -4
-31 -10 -3 -5 -14 -10 -23 -10 -9 0 -62 -14 -117 -31 -55 -17 -118 -35 -140
-41 -22 -6 -49 -14 -60 -18 -41 -15 -92 -30 -103 -30 -20 0 -118 -48 -132 -65
-7 -8 -18 -15 -25 -15 -8 0 -15 -4 -17 -8 -1 -5 -73 -55 -158 -112 -85 -57
-156 -107 -158 -112 -2 -4 -8 -8 -13 -8 -9 0 -218 -136 -229 -149 -3 -3 -17
-12 -31 -19 -14 -8 -55 -36 -90 -62 -35 -27 -70 -49 -76 -50 -7 0 -13 -4 -13
-10 0 -5 -7 -10 -15 -10 -8 0 -15 -4 -15 -10 0 -5 -5 -10 -11 -10 -12 0 -103
-60 -107 -72 -2 -4 -10 -8 -17 -8 -7 0 -15 -4 -17 -9 -1 -4 -149 -106 -328
-225 -351 -234 -343 -226 -185 -195 83 16 147 28 215 39 36 6 89 15 118 20 28
6 76 14 105 20 28 5 81 14 117 20 124 22 223 40 335 60 30 6 79 14 108 20 28
5 79 14 112 19 68 12 78 13 235 42 157 29 206 37 270 48 30 5 109 19 175 31
223 40 312 55 385 68 l44 7 52 155 c28 85 97 297 153 470 57 173 107 327 113
342 18 47 9 58 -37 44z"/>
<path d="M305 4928 c7 -24 22 -69 32 -101 10 -32 79 -242 153 -465 115 -346
138 -407 155 -410 11 -1 45 -7 75 -13 88 -17 150 -28 225 -40 39 -6 104 -18
145 -26 41 -8 101 -19 133 -24 59 -9 136 -22 222 -38 28 -5 79 -15 115 -21 36
-6 85 -15 110 -20 48 -9 124 -22 230 -41 36 -6 85 -14 110 -19 25 -5 72 -13
105 -19 33 -5 85 -15 115 -21 30 -5 82 -15 115 -20 33 -6 83 -14 110 -19 52
-10 127 -23 230 -41 33 -5 83 -14 110 -20 28 -5 73 -13 100 -16 28 -4 59 -11
70 -16 48 -22 -49 46 -390 274 -198 133 -361 245 -363 250 -2 4 -10 8 -18 8
-8 0 -14 3 -14 8 0 4 -12 13 -27 20 -16 7 -64 39 -108 72 -44 33 -86 60 -92
60 -7 0 -13 5 -13 10 0 6 -6 10 -13 10 -7 0 -23 9 -35 20 -12 11 -25 20 -30
20 -4 0 -17 8 -28 18 -29 27 -111 82 -122 82 -6 0 -12 4 -14 8 -1 5 -97 71
-213 149 -173 115 -223 144 -285 162 -41 13 -83 27 -92 32 -10 5 -25 9 -35 9
-9 0 -42 8 -72 19 -31 10 -76 24 -101 31 -25 7 -72 21 -105 31 -33 10 -80 23
-105 29 -25 7 -54 16 -65 20 -11 4 -38 13 -60 19 -80 22 -181 53 -203 62 -13
5 -34 9 -47 9 -24 0 -24 0 -10 -42z"/>
<path d="M780 3860 c-14 -4 -50 -13 -80 -19 -76 -16 -139 -31 -180 -41 -41
-10 -91 -22 -220 -51 -159 -35 -154 -25 -56 -102 47 -38 114 -89 148 -115 35
-26 70 -52 78 -59 37 -30 140 -110 170 -133 18 -14 40 -32 50 -40 10 -8 32
-26 50 -40 18 -14 39 -31 46 -37 7 -7 15 -13 19 -13 4 0 12 -6 19 -12 7 -7 28
-24 46 -38 18 -14 38 -29 44 -35 6 -5 38 -30 71 -55 33 -25 65 -49 71 -55 6
-5 26 -21 44 -35 18 -14 47 -36 65 -50 18 -14 47 -36 65 -50 18 -14 44 -35 59
-48 14 -13 46 -37 71 -55 25 -17 50 -36 56 -42 6 -5 26 -21 44 -35 18 -14 40
-32 50 -40 10 -8 32 -26 50 -40 18 -14 47 -36 65 -50 18 -14 47 -36 65 -50 18
-14 42 -33 53 -42 26 -23 30 -23 69 10 18 15 41 34 51 42 10 8 28 23 40 34 12
10 38 30 57 45 19 14 42 33 50 41 8 8 31 27 52 42 20 15 42 33 50 40 7 7 43
38 78 68 36 30 67 58 68 62 2 5 10 8 17 8 7 0 15 3 17 8 2 4 28 27 58 52 30
25 60 49 66 55 6 5 26 21 44 35 31 24 43 33 100 83 14 12 42 34 62 49 20 15
42 33 50 40 11 11 73 63 141 118 10 8 28 23 40 34 12 10 48 39 80 64 31 25 57
51 57 58 0 8 -19 15 -47 19 -27 3 -66 10 -88 15 -22 5 -69 14 -105 20 -36 6
-87 15 -115 20 -27 5 -79 14 -115 20 -36 6 -89 15 -117 20 -29 6 -78 15 -108
20 -30 6 -79 14 -107 20 -29 5 -69 12 -88 15 -19 3 -57 10 -85 15 -27 5 -79
14 -115 20 -36 7 -85 15 -110 20 -112 21 -179 32 -225 40 -27 4 -77 13 -110
19 -33 7 -87 17 -120 22 -33 6 -80 14 -105 19 -25 5 -74 13 -110 20 -36 6 -87
15 -115 20 -27 4 -81 13 -119 19 -37 6 -71 13 -75 15 -3 2 -17 0 -31 -4z"/>
<path d="M5315 3860 c-16 -5 -61 -13 -100 -20 -111 -17 -187 -31 -230 -40 -22
-5 -69 -14 -105 -20 -36 -6 -87 -15 -115 -20 -27 -5 -78 -14 -112 -20 -102
-17 -185 -31 -233 -40 -25 -5 -76 -14 -115 -20 -38 -6 -90 -15 -115 -20 -47
-9 -62 -12 -322 -60 -29 -5 -82 -14 -118 -20 -36 -6 -90 -15 -120 -21 -118
-22 -158 -29 -225 -40 -38 -6 -83 -15 -99 -20 -16 -5 -44 -9 -62 -9 -37 0 -84
-15 -84 -27 0 -5 22 -24 48 -43 26 -19 49 -37 52 -40 3 -3 41 -35 85 -70 44
-36 107 -87 140 -115 33 -27 80 -66 104 -85 24 -19 48 -40 55 -45 11 -10 107
-89 139 -115 11 -8 24 -20 31 -25 12 -11 108 -90 139 -115 11 -8 24 -20 31
-25 6 -6 36 -30 66 -55 30 -25 60 -49 66 -55 6 -5 26 -21 44 -35 45 -34 91
-71 116 -95 42 -39 104 -85 115 -85 3 0 15 8 26 18 11 9 35 28 53 42 18 14 38
30 44 35 6 6 27 22 48 37 20 15 42 33 50 40 7 7 29 25 50 40 20 15 42 34 50
41 7 7 29 24 48 37 19 13 37 27 40 30 3 3 32 25 65 50 33 25 69 53 80 63 11
11 40 33 65 50 25 17 50 36 56 42 6 5 26 21 44 35 35 26 143 111 171 134 9 7
47 37 85 66 38 30 92 72 120 94 28 23 65 52 84 66 18 14 47 36 65 50 18 14 47
36 65 50 18 14 38 30 44 35 6 6 38 30 71 55 33 25 65 50 71 55 6 6 26 21 44
35 18 14 41 32 52 42 18 16 18 16 -14 22 -38 8 -106 23 -158 36 -19 5 -55 13
-80 19 -25 5 -85 19 -135 31 -94 22 -152 35 -197 44 -14 3 -32 8 -40 10 -7 2
-26 0 -43 -4z"/>
<path d="M3048 3427 c-35 -29 -49 -41 -143 -117 -44 -35 -82 -67 -85 -70 -3
-3 -22 -18 -43 -33 -20 -16 -48 -39 -62 -53 -13 -13 -27 -24 -30 -24 -5 0 -48
-36 -89 -75 -12 -11 -37 -32 -56 -46 -19 -15 -45 -35 -56 -45 -12 -11 -36 -30
-54 -44 -18 -14 -42 -33 -54 -44 -11 -10 -37 -30 -56 -45 -19 -14 -40 -30 -46
-36 -29 -27 -119 -102 -138 -114 -12 -8 -23 -17 -26 -20 -5 -6 -163 -139 -203
-171 -10 -8 -31 -25 -45 -38 -15 -12 -52 -42 -82 -65 -30 -23 -60 -46 -66 -52
-21 -20 -117 -100 -128 -108 -14 -10 20 -37 47 -37 11 0 38 -5 61 -11 51 -13
96 -24 161 -39 28 -7 57 -14 65 -17 16 -6 -70 -32 -105 -33 -17 0 -28 -25 -73
-163 -29 -89 -68 -208 -86 -265 l-34 -103 41 6 c23 4 68 16 102 26 33 11 78
24 100 30 22 6 49 15 60 19 18 7 37 13 140 41 17 5 52 15 79 24 27 8 52 12 55
9 3 -3 -11 -21 -32 -39 l-38 -34 21 -107 c11 -60 22 -110 25 -112 4 -4 66 28
75 39 3 3 41 30 85 59 44 30 89 62 99 72 11 10 25 18 32 18 7 0 14 4 16 8 4
11 94 72 106 72 6 0 12 4 14 8 3 9 40 35 243 174 66 45 129 90 139 100 11 10
24 18 28 18 5 0 18 9 30 20 22 20 54 27 60 12 2 -5 64 -50 138 -100 74 -50
172 -117 217 -149 171 -121 203 -143 213 -143 5 0 10 -4 10 -8 0 -5 12 -15 28
-23 15 -8 29 -17 32 -20 3 -3 34 -25 70 -49 36 -24 84 -59 108 -77 24 -18 49
-33 56 -33 8 0 20 40 34 110 l22 110 -38 35 c-35 33 -36 34 -13 35 22 0 64
-11 116 -30 11 -4 40 -13 65 -20 25 -7 56 -16 70 -20 162 -51 290 -83 297 -76
5 5 -125 414 -159 499 -7 17 -18 27 -32 27 -33 0 -113 27 -96 33 8 2 31 9 51
16 19 6 45 11 57 11 11 0 31 4 44 9 13 5 50 14 83 21 33 7 70 17 83 23 l24 11
-37 33 c-20 18 -55 47 -77 65 -22 18 -48 40 -58 48 -10 8 -37 31 -60 49 -24
19 -48 41 -56 48 -7 7 -16 13 -20 13 -3 0 -14 8 -23 18 -9 9 -32 29 -51 43
-19 15 -46 37 -60 49 -14 12 -42 36 -64 53 -21 18 -43 37 -50 42 -10 9 -90 75
-139 115 -10 8 -28 23 -40 34 -12 10 -38 30 -57 45 -19 14 -37 28 -40 31 -5 5
-92 77 -133 110 -11 8 -24 20 -31 25 -75 66 -97 84 -125 105 -19 14 -42 32
-51 40 -10 8 -35 29 -57 47 -21 17 -51 43 -68 57 -16 15 -55 46 -85 69 -30 23
-68 54 -85 69 -16 16 -32 28 -35 28 -3 0 -17 -10 -32 -23z"/>
<path d="M420 1231 c0 -39 0 -40 -41 -43 l-41 -3 1 -245 c0 -135 1 -248 1
-252 0 -5 20 -8 45 -8 l45 0 0 250 0 250 80 0 80 0 0 -250 0 -250 45 0 45 0 0
250 0 251 81 -3 80 -3 -1 -247 -1 -248 46 0 45 0 0 255 0 255 -40 0 -40 0 0
40 0 40 -85 0 -85 0 0 -40 0 -40 -40 0 -40 0 0 40 0 40 -90 0 -90 0 0 -39z"/>
<path d="M2380 1015 l0 -255 40 0 40 0 0 -40 0 -40 91 0 90 0 -3 43 -3 42 -82
3 -83 3 0 249 0 250 -45 0 -45 0 0 -255z"/>
<path d="M3480 1230 l0 -40 -40 0 -40 0 2 -212 3 -213 38 -3 c36 -3 37 -4 37
-43 l0 -39 215 0 215 0 0 40 0 40 40 0 c39 0 43 3 43 35 0 56 -1 56 -45 53
-42 -3 -43 -4 -46 -40 l-3 -38 -205 0 -204 0 0 205 0 205 204 0 205 0 3 -37
c3 -37 4 -38 46 -41 l42 -3 0 45 0 46 -40 0 -40 0 0 40 0 40 -215 0 -215 0 0
-40z"/>
<path d="M5268 1188 l-3 -83 -212 -3 -213 -2 0 -40 c0 -39 0 -39 -42 -42 l-43
-3 0 -125 0 -125 44 0 43 0 -1 121 c-2 99 1 123 13 127 18 7 385 7 403 0 10
-4 13 -36 13 -123 0 -101 -2 -119 -17 -124 -9 -4 -100 -6 -202 -6 -102 0 -192
1 -198 0 -8 0 -13 -15 -13 -40 l0 -40 260 0 260 0 0 295 0 295 -45 0 -44 0 -3
-82z"/>
<path d="M1102 1058 l3 -43 213 -3 213 -2 -3 -38 -3 -37 -212 -3 -213 -2 0
-40 c0 -39 0 -39 -42 -42 -42 -3 -43 -4 -46 -40 -3 -33 0 -38 23 -44 14 -3 34
-4 45 -1 18 5 20 0 20 -39 l0 -44 260 0 260 0 -2 168 -3 167 -42 3 c-43 3 -43
3 -43 43 l0 39 -216 0 -215 0 3 -42z m426 -250 l3 -37 -201 -3 c-111 -2 -208
1 -216 5 -13 7 -11 44 3 70 2 4 95 6 206 5 l202 -3 3 -37z"/>
<path d="M1700 805 l0 -295 45 0 45 0 0 85 0 85 210 0 210 0 0 39 c0 40 0 40
43 43 l42 3 0 125 0 125 -42 3 c-43 3 -43 3 -43 43 l0 39 -255 0 -255 0 0
-295z m508 83 l3 -128 -211 0 -210 0 0 131 0 130 208 -3 207 -3 3 -127z"/>
<path d="M2800 1061 c0 -40 0 -40 -42 -43 l-43 -3 0 -125 0 -125 43 -3 c42 -3
42 -3 42 -43 l0 -39 216 0 215 0 -3 43 -3 42 -212 3 -213 2 0 35 0 35 213 2
212 3 3 42 c3 42 3 42 45 45 42 3 42 3 42 43 0 40 0 40 -42 43 -43 3 -43 3
-43 43 l0 39 -215 0 -215 0 0 -39z m421 -88 l-6 -38 -200 0 -199 0 -7 32 c-3
18 -4 35 -1 38 3 3 98 5 212 5 l207 0 -6 -37z"/>
<path d="M4160 1061 c0 -40 0 -40 -42 -43 l-43 -3 3 -120 c2 -66 6 -123 9
-127 2 -5 20 -8 39 -8 33 0 34 -1 34 -40 l0 -40 214 0 215 0 3 38 c3 35 5 37
41 40 l37 3 0 129 0 129 -37 3 c-36 3 -38 5 -41 41 l-3 37 -215 0 -214 0 0
-39z m423 -48 c2 -4 2 -63 -1 -130 l-4 -123 -209 0 -209 0 0 123 c0 68 3 126
6 130 9 9 412 9 417 0z"/>
<path d="M5518 1063 c-3 -36 -5 -38 -41 -43 -21 -3 -38 -8 -37 -12 0 -5 0 -62
0 -128 l0 -120 40 0 40 0 0 -40 0 -40 216 0 215 0 -3 43 -3 42 -210 5 -210 5
0 30 0 30 210 5 210 5 3 42 c3 41 4 42 44 45 41 3 41 3 41 43 0 40 0 40 -41
43 -42 3 -42 3 -42 43 l0 39 -214 0 -215 0 -3 -37z m420 -90 l-3 -38 -199 -3
c-215 -3 -216 -3 -216 51 l0 27 211 0 210 0 -3 -37z"/>
</g>
</svg>
